<?xml version="1.0" encoding="UTF-8" standalone="no"?>
<!-- Created with Inkscape (http://www.inkscape.org/) -->

<svg
   xmlns:dc="http://purl.org/dc/elements/1.1/"
   xmlns:cc="http://creativecommons.org/ns#"
   xmlns:rdf="http://www.w3.org/1999/02/22-rdf-syntax-ns#"
   xmlns:svg="http://www.w3.org/2000/svg"
   xmlns="http://www.w3.org/2000/svg"
   xmlns:sodipodi="http://sodipodi.sourceforge.net/DTD/sodipodi-0.dtd"
   xmlns:inkscape="http://www.inkscape.org/namespaces/inkscape"
   width="744.09448819"
   height="1052.3622047"
   id="svg2"
   version="1.1"
   inkscape:version="0.48.4 r9939"
   sodipodi:docname="bintree_traversal_1.svg"
   inkscape:export-filename="/home/vova/workspace/latex/CCourseFAKI2015/seminar12/images/bintree_traversal_1.png"
   inkscape:export-xdpi="300"
   inkscape:export-ydpi="300">
  <defs
     id="defs4">
    <marker
       inkscape:stockid="Arrow1Send"
       orient="auto"
       refY="0.0"
       refX="0.0"
       id="Arrow1Send"
       style="overflow:visible;">
      <path
         id="path3816"
         d="M 0.0,0.0 L 5.0,-5.0 L -12.5,0.0 L 5.0,5.0 L 0.0,0.0 z "
         style="fill-rule:evenodd;stroke:#000000;stroke-width:1.0pt;"
         transform="scale(0.2) rotate(180) translate(6,0)" />
    </marker>
    <marker
       inkscape:stockid="Arrow1Mend"
       orient="auto"
       refY="0.0"
       refX="0.0"
       id="Arrow1Mend"
       style="overflow:visible;">
      <path
         id="path3810"
         d="M 0.0,0.0 L 5.0,-5.0 L -12.5,0.0 L 5.0,5.0 L 0.0,0.0 z "
         style="fill-rule:evenodd;stroke:#000000;stroke-width:1.0pt;"
         transform="scale(0.4) rotate(180) translate(10,0)" />
    </marker>
    <marker
       inkscape:stockid="Arrow2Mend"
       orient="auto"
       refY="0.0"
       refX="0.0"
       id="Arrow2Mend"
       style="overflow:visible;">
      <path
         id="path3828"
         style="fill-rule:evenodd;stroke-width:0.62500000;stroke-linejoin:round;"
         d="M 8.7185878,4.0337352 L -2.2072895,0.016013256 L 8.7185884,-4.0017078 C 6.9730900,-1.6296469 6.9831476,1.6157441 8.7185878,4.0337352 z "
         transform="scale(0.6) rotate(180) translate(0,0)" />
    </marker>
    <marker
       inkscape:stockid="Arrow2Mend"
       orient="auto"
       refY="0"
       refX="0"
       id="Arrow2Mend-1"
       style="overflow:visible">
      <path
         inkscape:connector-curvature="0"
         id="path3828-1"
         style="fill-rule:evenodd;stroke-width:0.625;stroke-linejoin:round"
         d="M 8.7185878,4.0337352 -2.2072895,0.01601326 8.7185884,-4.0017078 c -1.7454984,2.3720609 -1.7354408,5.6174519 -6e-7,8.035443 z"
         transform="scale(-0.6,-0.6)" />
    </marker>
    <marker
       inkscape:stockid="Arrow2Mend"
       orient="auto"
       refY="0"
       refX="0"
       id="Arrow2Mend-10"
       style="overflow:visible">
      <path
         inkscape:connector-curvature="0"
         id="path3828-0"
         style="fill-rule:evenodd;stroke-width:0.625;stroke-linejoin:round"
         d="M 8.7185878,4.0337352 -2.2072895,0.01601326 8.7185884,-4.0017078 c -1.7454984,2.3720609 -1.7354408,5.6174519 -6e-7,8.035443 z"
         transform="scale(-0.6,-0.6)" />
    </marker>
    <marker
       inkscape:stockid="Arrow2Mend"
       orient="auto"
       refY="0"
       refX="0"
       id="Arrow2Mend-4"
       style="overflow:visible">
      <path
         inkscape:connector-curvature="0"
         id="path3828-8"
         style="fill-rule:evenodd;stroke-width:0.625;stroke-linejoin:round"
         d="M 8.7185878,4.0337352 -2.2072895,0.01601326 8.7185884,-4.0017078 c -1.7454984,2.3720609 -1.7354408,5.6174519 -6e-7,8.035443 z"
         transform="scale(-0.6,-0.6)" />
    </marker>
    <marker
       inkscape:stockid="Arrow2Mend"
       orient="auto"
       refY="0"
       refX="0"
       id="Arrow2Mend-8"
       style="overflow:visible">
      <path
         inkscape:connector-curvature="0"
         id="path3828-4"
         style="fill-rule:evenodd;stroke-width:0.625;stroke-linejoin:round"
         d="M 8.7185878,4.0337352 -2.2072895,0.01601326 8.7185884,-4.0017078 c -1.7454984,2.3720609 -1.7354408,5.6174519 -6e-7,8.035443 z"
         transform="scale(-0.6,-0.6)" />
    </marker>
    <marker
       inkscape:stockid="Arrow1Send"
       orient="auto"
       refY="0"
       refX="0"
       id="Arrow1Send-4"
       style="overflow:visible">
      <path
         inkscape:connector-curvature="0"
         id="path3816-4"
         d="M 0,0 5,-5 -12.5,0 5,5 0,0 z"
         style="fill-rule:evenodd;stroke:#000000;stroke-width:1pt"
         transform="matrix(-0.2,0,0,-0.2,-1.2,0)" />
    </marker>
    <marker
       inkscape:stockid="Arrow1Mend"
       orient="auto"
       refY="0"
       refX="0"
       id="Arrow1Mend-9"
       style="overflow:visible">
      <path
         inkscape:connector-curvature="0"
         id="path3810-8"
         d="M 0,0 5,-5 -12.5,0 5,5 0,0 z"
         style="fill-rule:evenodd;stroke:#000000;stroke-width:1pt"
         transform="matrix(-0.4,0,0,-0.4,-4,0)" />
    </marker>
    <marker
       inkscape:stockid="Arrow2Mend"
       orient="auto"
       refY="0"
       refX="0"
       id="Arrow2Mend-8-8"
       style="overflow:visible">
      <path
         inkscape:connector-curvature="0"
         id="path3828-4-0"
         style="fill-rule:evenodd;stroke-width:0.625;stroke-linejoin:round"
         d="M 8.7185878,4.0337352 -2.2072895,0.01601326 8.7185884,-4.0017078 c -1.7454984,2.3720609 -1.7354408,5.6174519 -6e-7,8.035443 z"
         transform="scale(-0.6,-0.6)" />
    </marker>
    <marker
       inkscape:stockid="Arrow2Mend"
       orient="auto"
       refY="0"
       refX="0"
       id="marker6915"
       style="overflow:visible">
      <path
         inkscape:connector-curvature="0"
         id="path6917"
         style="fill-rule:evenodd;stroke-width:0.625;stroke-linejoin:round"
         d="M 8.7185878,4.0337352 -2.2072895,0.01601326 8.7185884,-4.0017078 c -1.7454984,2.3720609 -1.7354408,5.6174519 -6e-7,8.035443 z"
         transform="scale(-0.6,-0.6)" />
    </marker>
    <marker
       inkscape:stockid="Arrow2Mend"
       orient="auto"
       refY="0"
       refX="0"
       id="Arrow2Mend-5"
       style="overflow:visible">
      <path
         inkscape:connector-curvature="0"
         id="path3828-3"
         style="fill-rule:evenodd;stroke-width:0.625;stroke-linejoin:round"
         d="M 8.7185878,4.0337352 -2.2072895,0.01601326 8.7185884,-4.0017078 c -1.7454984,2.3720609 -1.7354408,5.6174519 -6e-7,8.035443 z"
         transform="scale(-0.6,-0.6)" />
    </marker>
    <marker
       inkscape:stockid="Arrow2Mend"
       orient="auto"
       refY="0"
       refX="0"
       id="marker6921"
       style="overflow:visible">
      <path
         inkscape:connector-curvature="0"
         id="path6923"
         style="fill-rule:evenodd;stroke-width:0.625;stroke-linejoin:round"
         d="M 8.7185878,4.0337352 -2.2072895,0.01601326 8.7185884,-4.0017078 c -1.7454984,2.3720609 -1.7354408,5.6174519 -6e-7,8.035443 z"
         transform="scale(-0.6,-0.6)" />
    </marker>
    <marker
       inkscape:stockid="Arrow2Mend"
       orient="auto"
       refY="0"
       refX="0"
       id="marker6921-7"
       style="overflow:visible">
      <path
         inkscape:connector-curvature="0"
         id="path6923-7"
         style="fill-rule:evenodd;stroke-width:0.625;stroke-linejoin:round"
         d="M 8.7185878,4.0337352 -2.2072895,0.01601326 8.7185884,-4.0017078 c -1.7454984,2.3720609 -1.7354408,5.6174519 -6e-7,8.035443 z"
         transform="scale(-0.6,-0.6)" />
    </marker>
    <marker
       inkscape:stockid="Arrow2Mend"
       orient="auto"
       refY="0"
       refX="0"
       id="marker6921-0"
       style="overflow:visible">
      <path
         inkscape:connector-curvature="0"
         id="path6923-2"
         style="fill-rule:evenodd;stroke-width:0.625;stroke-linejoin:round"
         d="M 8.7185878,4.0337352 -2.2072895,0.01601326 8.7185884,-4.0017078 c -1.7454984,2.3720609 -1.7354408,5.6174519 -6e-7,8.035443 z"
         transform="scale(-0.6,-0.6)" />
    </marker>
    <marker
       inkscape:stockid="Arrow2Mend"
       orient="auto"
       refY="0"
       refX="0"
       id="marker6921-6"
       style="overflow:visible">
      <path
         inkscape:connector-curvature="0"
         id="path6923-3"
         style="fill-rule:evenodd;stroke-width:0.625;stroke-linejoin:round"
         d="M 8.7185878,4.0337352 -2.2072895,0.01601326 8.7185884,-4.0017078 c -1.7454984,2.3720609 -1.7354408,5.6174519 -6e-7,8.035443 z"
         transform="scale(-0.6,-0.6)" />
    </marker>
    <marker
       inkscape:stockid="Arrow2Mend"
       orient="auto"
       refY="0"
       refX="0"
       id="marker6921-2"
       style="overflow:visible">
      <path
         inkscape:connector-curvature="0"
         id="path6923-26"
         style="fill-rule:evenodd;stroke-width:0.625;stroke-linejoin:round"
         d="M 8.7185878,4.0337352 -2.2072895,0.01601326 8.7185884,-4.0017078 c -1.7454984,2.3720609 -1.7354408,5.6174519 -6e-7,8.035443 z"
         transform="scale(-0.6,-0.6)" />
    </marker>
    <marker
       inkscape:stockid="Arrow2Mend"
       orient="auto"
       refY="0"
       refX="0"
       id="marker6921-4"
       style="overflow:visible">
      <path
         inkscape:connector-curvature="0"
         id="path6923-34"
         style="fill-rule:evenodd;stroke-width:0.625;stroke-linejoin:round"
         d="M 8.7185878,4.0337352 -2.2072895,0.01601326 8.7185884,-4.0017078 c -1.7454984,2.3720609 -1.7354408,5.6174519 -6e-7,8.035443 z"
         transform="scale(-0.6,-0.6)" />
    </marker>
    <marker
       inkscape:stockid="Arrow2Mend"
       orient="auto"
       refY="0"
       refX="0"
       id="marker7916"
       style="overflow:visible">
      <path
         inkscape:connector-curvature="0"
         id="path7918"
         style="fill-rule:evenodd;stroke-width:0.625;stroke-linejoin:round"
         d="M 8.7185878,4.0337352 -2.2072895,0.01601326 8.7185884,-4.0017078 c -1.7454984,2.3720609 -1.7354408,5.6174519 -6e-7,8.035443 z"
         transform="scale(-0.6,-0.6)" />
    </marker>
    <marker
       inkscape:stockid="Arrow2Mend"
       orient="auto"
       refY="0"
       refX="0"
       id="marker6921-1"
       style="overflow:visible">
      <path
         inkscape:connector-curvature="0"
         id="path6923-21"
         style="fill-rule:evenodd;stroke-width:0.625;stroke-linejoin:round"
         d="M 8.7185878,4.0337352 -2.2072895,0.01601326 8.7185884,-4.0017078 c -1.7454984,2.3720609 -1.7354408,5.6174519 -6e-7,8.035443 z"
         transform="scale(-0.6,-0.6)" />
    </marker>
    <marker
       inkscape:stockid="Arrow2Mend"
       orient="auto"
       refY="0"
       refX="0"
       id="marker7916-3"
       style="overflow:visible">
      <path
         inkscape:connector-curvature="0"
         id="path7918-7"
         style="fill-rule:evenodd;stroke-width:0.625;stroke-linejoin:round"
         d="M 8.7185878,4.0337352 -2.2072895,0.01601326 8.7185884,-4.0017078 c -1.7454984,2.3720609 -1.7354408,5.6174519 -6e-7,8.035443 z"
         transform="scale(-0.6,-0.6)" />
    </marker>
    <marker
       inkscape:stockid="Arrow2Mend"
       orient="auto"
       refY="0"
       refX="0"
       id="marker6921-9"
       style="overflow:visible">
      <path
         inkscape:connector-curvature="0"
         id="path6923-0"
         style="fill-rule:evenodd;stroke-width:0.625;stroke-linejoin:round"
         d="M 8.7185878,4.0337352 -2.2072895,0.01601326 8.7185884,-4.0017078 c -1.7454984,2.3720609 -1.7354408,5.6174519 -6e-7,8.035443 z"
         transform="scale(-0.6,-0.6)" />
    </marker>
    <marker
       inkscape:stockid="Arrow2Mend"
       orient="auto"
       refY="0"
       refX="0"
       id="marker7993"
       style="overflow:visible">
      <path
         inkscape:connector-curvature="0"
         id="path7995"
         style="fill-rule:evenodd;stroke-width:0.625;stroke-linejoin:round"
         d="M 8.7185878,4.0337352 -2.2072895,0.01601326 8.7185884,-4.0017078 c -1.7454984,2.3720609 -1.7354408,5.6174519 -6e-7,8.035443 z"
         transform="scale(-0.6,-0.6)" />
    </marker>
    <marker
       inkscape:stockid="Arrow2Mend"
       orient="auto"
       refY="0"
       refX="0"
       id="marker6921-18"
       style="overflow:visible">
      <path
         inkscape:connector-curvature="0"
         id="path6923-9"
         style="fill-rule:evenodd;stroke-width:0.625;stroke-linejoin:round"
         d="M 8.7185878,4.0337352 -2.2072895,0.01601326 8.7185884,-4.0017078 c -1.7454984,2.3720609 -1.7354408,5.6174519 -6e-7,8.035443 z"
         transform="scale(-0.6,-0.6)" />
    </marker>
    <marker
       inkscape:stockid="Arrow2Mend"
       orient="auto"
       refY="0"
       refX="0"
       id="marker7993-1"
       style="overflow:visible">
      <path
         inkscape:connector-curvature="0"
         id="path7995-0"
         style="fill-rule:evenodd;stroke-width:0.625;stroke-linejoin:round"
         d="M 8.7185878,4.0337352 -2.2072895,0.01601326 8.7185884,-4.0017078 c -1.7454984,2.3720609 -1.7354408,5.6174519 -6e-7,8.035443 z"
         transform="scale(-0.6,-0.6)" />
    </marker>
    <marker
       inkscape:stockid="Arrow2Mend"
       orient="auto"
       refY="0"
       refX="0"
       id="marker6921-97"
       style="overflow:visible">
      <path
         inkscape:connector-curvature="0"
         id="path6923-6"
         style="fill-rule:evenodd;stroke-width:0.625;stroke-linejoin:round"
         d="M 8.7185878,4.0337352 -2.2072895,0.01601326 8.7185884,-4.0017078 c -1.7454984,2.3720609 -1.7354408,5.6174519 -6e-7,8.035443 z"
         transform="scale(-0.6,-0.6)" />
    </marker>
    <marker
       inkscape:stockid="Arrow2Mend"
       orient="auto"
       refY="0"
       refX="0"
       id="marker8070"
       style="overflow:visible">
      <path
         inkscape:connector-curvature="0"
         id="path8072"
         style="fill-rule:evenodd;stroke-width:0.625;stroke-linejoin:round"
         d="M 8.7185878,4.0337352 -2.2072895,0.01601326 8.7185884,-4.0017078 c -1.7454984,2.3720609 -1.7354408,5.6174519 -6e-7,8.035443 z"
         transform="scale(-0.6,-0.6)" />
    </marker>
    <marker
       inkscape:stockid="Arrow2Mend"
       orient="auto"
       refY="0"
       refX="0"
       id="marker6921-16"
       style="overflow:visible">
      <path
         inkscape:connector-curvature="0"
         id="path6923-5"
         style="fill-rule:evenodd;stroke-width:0.625;stroke-linejoin:round"
         d="M 8.7185878,4.0337352 -2.2072895,0.01601326 8.7185884,-4.0017078 c -1.7454984,2.3720609 -1.7354408,5.6174519 -6e-7,8.035443 z"
         transform="scale(-0.6,-0.6)" />
    </marker>
    <marker
       inkscape:stockid="Arrow2Mend"
       orient="auto"
       refY="0"
       refX="0"
       id="marker8120"
       style="overflow:visible">
      <path
         inkscape:connector-curvature="0"
         id="path8122"
         style="fill-rule:evenodd;stroke-width:0.625;stroke-linejoin:round"
         d="M 8.7185878,4.0337352 -2.2072895,0.01601326 8.7185884,-4.0017078 c -1.7454984,2.3720609 -1.7354408,5.6174519 -6e-7,8.035443 z"
         transform="scale(-0.6,-0.6)" />
    </marker>
    <marker
       inkscape:stockid="Arrow2Mend"
       orient="auto"
       refY="0"
       refX="0"
       id="marker6921-73"
       style="overflow:visible">
      <path
         inkscape:connector-curvature="0"
         id="path6923-03"
         style="fill-rule:evenodd;stroke-width:0.625;stroke-linejoin:round"
         d="M 8.7185878,4.0337352 -2.2072895,0.01601326 8.7185884,-4.0017078 c -1.7454984,2.3720609 -1.7354408,5.6174519 -6e-7,8.035443 z"
         transform="scale(-0.6,-0.6)" />
    </marker>
    <marker
       inkscape:stockid="Arrow2Mend"
       orient="auto"
       refY="0"
       refX="0"
       id="marker8170"
       style="overflow:visible">
      <path
         inkscape:connector-curvature="0"
         id="path8172"
         style="fill-rule:evenodd;stroke-width:0.625;stroke-linejoin:round"
         d="M 8.7185878,4.0337352 -2.2072895,0.01601326 8.7185884,-4.0017078 c -1.7454984,2.3720609 -1.7354408,5.6174519 -6e-7,8.035443 z"
         transform="scale(-0.6,-0.6)" />
    </marker>
    <marker
       inkscape:stockid="Arrow2Mend"
       orient="auto"
       refY="0"
       refX="0"
       id="marker6921-62"
       style="overflow:visible">
      <path
         inkscape:connector-curvature="0"
         id="path6923-1"
         style="fill-rule:evenodd;stroke-width:0.625;stroke-linejoin:round"
         d="M 8.7185878,4.0337352 -2.2072895,0.01601326 8.7185884,-4.0017078 c -1.7454984,2.3720609 -1.7354408,5.6174519 -6e-7,8.035443 z"
         transform="scale(-0.6,-0.6)" />
    </marker>
    <marker
       inkscape:stockid="Arrow2Mend"
       orient="auto"
       refY="0"
       refX="0"
       id="marker8170-4"
       style="overflow:visible">
      <path
         inkscape:connector-curvature="0"
         id="path8172-0"
         style="fill-rule:evenodd;stroke-width:0.625;stroke-linejoin:round"
         d="M 8.7185878,4.0337352 -2.2072895,0.01601326 8.7185884,-4.0017078 c -1.7454984,2.3720609 -1.7354408,5.6174519 -6e-7,8.035443 z"
         transform="scale(-0.6,-0.6)" />
    </marker>
    <marker
       inkscape:stockid="Arrow2Mend"
       orient="auto"
       refY="0"
       refX="0"
       id="marker6921-15"
       style="overflow:visible">
      <path
         inkscape:connector-curvature="0"
         id="path6923-8"
         style="fill-rule:evenodd;stroke-width:0.625;stroke-linejoin:round"
         d="M 8.7185878,4.0337352 -2.2072895,0.01601326 8.7185884,-4.0017078 c -1.7454984,2.3720609 -1.7354408,5.6174519 -6e-7,8.035443 z"
         transform="scale(-0.6,-0.6)" />
    </marker>
    <marker
       inkscape:stockid="Arrow2Mend"
       orient="auto"
       refY="0"
       refX="0"
       id="marker8170-0"
       style="overflow:visible">
      <path
         inkscape:connector-curvature="0"
         id="path8172-9"
         style="fill-rule:evenodd;stroke-width:0.625;stroke-linejoin:round"
         d="M 8.7185878,4.0337352 -2.2072895,0.01601326 8.7185884,-4.0017078 c -1.7454984,2.3720609 -1.7354408,5.6174519 -6e-7,8.035443 z"
         transform="scale(-0.6,-0.6)" />
    </marker>
    <marker
       inkscape:stockid="Arrow1Mend"
       orient="auto"
       refY="0"
       refX="0"
       id="Arrow1Mend-9-5"
       style="overflow:visible">
      <path
         inkscape:connector-curvature="0"
         id="path3810-8-5"
         d="M 0,0 5,-5 -12.5,0 5,5 0,0 z"
         style="fill-rule:evenodd;stroke:#000000;stroke-width:1pt"
         transform="matrix(-0.4,0,0,-0.4,-4,0)" />
    </marker>
  </defs>
  <sodipodi:namedview
     id="base"
     pagecolor="#ffffff"
     bordercolor="#666666"
     borderopacity="1.0"
     inkscape:pageopacity="0.0"
     inkscape:pageshadow="2"
     inkscape:zoom="1.4"
     inkscape:cx="294.49265"
     inkscape:cy="853.32022"
     inkscape:document-units="px"
     inkscape:current-layer="layer1"
     showgrid="false"
     inkscape:window-width="1920"
     inkscape:window-height="1030"
     inkscape:window-x="0"
     inkscape:window-y="0"
     inkscape:window-maximized="1" />
  <metadata
     id="metadata7">
    <rdf:RDF>
      <cc:Work
         rdf:about="">
        <dc:format>image/svg+xml</dc:format>
        <dc:type
           rdf:resource="http://purl.org/dc/dcmitype/StillImage" />
        <dc:title></dc:title>
      </cc:Work>
    </rdf:RDF>
  </metadata>
  <g
     inkscape:label="Layer 1"
     inkscape:groupmode="layer"
     id="layer1">
    <rect
       style="fill:#b7bec8;fill-opacity:1;stroke:#000000;stroke-width:0.71568328;stroke-opacity:1"
       id="rect2985-2-8"
       width="51.966419"
       height="15.088948"
       x="37.725967"
       y="118.48742"
       ry="0.27507907" />
    <path
       sodipodi:type="arc"
       style="fill:#000000;fill-opacity:1;stroke:#000000;stroke-width:1;stroke-linejoin:miter;stroke-miterlimit:4;stroke-opacity:1;stroke-dasharray:none;stroke-dashoffset:0"
       id="path3793-4"
       sodipodi:cx="178.57143"
       sodipodi:cy="263.07648"
       sodipodi:rx="5"
       sodipodi:ry="5"
       d="m 183.57143,263.07648 a 5,5 0 1 1 -10,0 5,5 0 1 1 10,0 z"
       transform="matrix(0.52682104,0,0,0.52682104,-10.391417,-12.183319)" />
    <text
       xml:space="preserve"
       style="font-size:18.9655571px;font-style:normal;font-weight:normal;line-height:125%;letter-spacing:0px;word-spacing:0px;fill:#000000;fill-opacity:1;stroke:none;font-family:Sans"
       x="38.326885"
       y="130.64784"
       id="text4594"
       sodipodi:linespacing="125%"><tspan
         sodipodi:role="line"
         id="tspan4596"
         x="38.326885"
         y="130.64784"
         style="font-size:14px">head</tspan></text>
    <rect
       style="fill:#deaa87;fill-opacity:1;stroke:#000000;stroke-width:0.71542305;stroke-miterlimit:4;stroke-opacity:1;stroke-dasharray:none"
       id="rect2985-21-6"
       width="51.966419"
       height="15.088948"
       x="197.3847"
       y="121.13925"
       ry="0.27507907" />
    <rect
       style="fill:#b7bec8;fill-opacity:1;stroke:#000000;stroke-width:0.71542305;stroke-miterlimit:4;stroke-opacity:1;stroke-dasharray:none"
       id="rect2985-2-7-6"
       width="27.398542"
       height="15.281659"
       x="197.28833"
       y="134.21341"
       ry="0.27859226" />
    <rect
       style="fill:#b7bec8;fill-opacity:1;stroke:#000000;stroke-width:0.71385592;stroke-miterlimit:4;stroke-opacity:1;stroke-dasharray:none"
       id="rect2985-2-7-5-5"
       width="25.79364"
       height="15.304025"
       x="223.54695"
       y="134.20134"
       ry="0.27899998" />
    <path
       sodipodi:type="arc"
       style="fill:#000000;fill-opacity:1;stroke:#000000;stroke-width:1;stroke-linejoin:miter;stroke-miterlimit:4;stroke-opacity:1;stroke-dasharray:none;stroke-dashoffset:0"
       id="path3793-4-2"
       sodipodi:cx="178.57143"
       sodipodi:cy="263.07648"
       sodipodi:rx="5"
       sodipodi:ry="5"
       d="m 183.57143,263.07648 a 5,5 0 1 1 -10,0 5,5 0 1 1 10,0 z"
       transform="matrix(0.52682104,0,0,0.52682104,108.7272,3.7650128)" />
    <path
       sodipodi:type="arc"
       style="fill:#000000;fill-opacity:1;stroke:#000000;stroke-width:1;stroke-linejoin:miter;stroke-miterlimit:4;stroke-opacity:1;stroke-dasharray:none;stroke-dashoffset:0"
       id="path3793-4-0"
       sodipodi:cx="178.57143"
       sodipodi:cy="263.07648"
       sodipodi:rx="5"
       sodipodi:ry="5"
       d="m 183.57143,263.07648 a 5,5 0 1 1 -10,0 5,5 0 1 1 10,0 z"
       transform="matrix(0.52682104,0,0,0.52682104,150.21437,3.9531677)" />
    <path
       style="fill:none;stroke:#000000;stroke-width:1.58046317;stroke-linecap:butt;stroke-linejoin:miter;stroke-miterlimit:4;stroke-opacity:1;stroke-dasharray:none;marker-end:url(#marker6921)"
       d="m 202.42035,141.85267 -61.17886,0 0,23.37288"
       id="path7139"
       inkscape:connector-curvature="0" />
    <path
       style="fill:none;stroke:#000000;stroke-width:1.35529697;stroke-linecap:butt;stroke-linejoin:miter;stroke-miterlimit:4;stroke-opacity:1;stroke-dasharray:none;marker-end:url(#marker6921)"
       d="m 243.94419,142.37605 70.9021,0 0,23.66162"
       id="path7347"
       inkscape:connector-curvature="0" />
    <rect
       style="fill:#deaa87;fill-opacity:1;stroke:#000000;stroke-width:0.71542305;stroke-miterlimit:4;stroke-opacity:1;stroke-dasharray:none"
       id="rect2985-21-6-2"
       width="51.966419"
       height="15.088948"
       x="114.89838"
       y="170.09883"
       ry="0.27507907" />
    <rect
       style="fill:#b7bec8;fill-opacity:1;stroke:#000000;stroke-width:0.71542305;stroke-miterlimit:4;stroke-opacity:1;stroke-dasharray:none"
       id="rect2985-2-7-6-8"
       width="27.398542"
       height="15.281659"
       x="114.80204"
       y="183.17302"
       ry="0.27859226" />
    <rect
       style="fill:#b7bec8;fill-opacity:1;stroke:#000000;stroke-width:0.71385592;stroke-miterlimit:4;stroke-opacity:1;stroke-dasharray:none"
       id="rect2985-2-7-5-5-7"
       width="25.79364"
       height="15.304025"
       x="141.06065"
       y="183.16092"
       ry="0.27899998" />
    <path
       sodipodi:type="arc"
       style="fill:#000000;fill-opacity:1;stroke:#000000;stroke-width:1;stroke-linejoin:miter;stroke-miterlimit:4;stroke-opacity:1;stroke-dasharray:none;stroke-dashoffset:0"
       id="path3793-4-2-7"
       sodipodi:cx="178.57143"
       sodipodi:cy="263.07648"
       sodipodi:rx="5"
       sodipodi:ry="5"
       d="m 183.57143,263.07648 a 5,5 0 1 1 -10,0 5,5 0 1 1 10,0 z"
       transform="matrix(0.52682104,0,0,0.52682104,26.240905,52.72461)" />
    <path
       sodipodi:type="arc"
       style="fill:#000000;fill-opacity:1;stroke:#000000;stroke-width:1;stroke-linejoin:miter;stroke-miterlimit:4;stroke-opacity:1;stroke-dasharray:none;stroke-dashoffset:0"
       id="path3793-4-0-8"
       sodipodi:cx="178.57143"
       sodipodi:cy="263.07648"
       sodipodi:rx="5"
       sodipodi:ry="5"
       d="m 183.57143,263.07648 a 5,5 0 1 1 -10,0 5,5 0 1 1 10,0 z"
       transform="matrix(0.52682104,0,0,0.52682104,67.728072,52.912761)" />
    <rect
       style="fill:#deaa87;fill-opacity:1;stroke:#000000;stroke-width:0.71542305;stroke-miterlimit:4;stroke-opacity:1;stroke-dasharray:none"
       id="rect2985-21-6-2-9"
       width="51.966419"
       height="15.088948"
       x="289.45001"
       y="169.30058"
       ry="0.27507907" />
    <rect
       style="fill:#b7bec8;fill-opacity:1;stroke:#000000;stroke-width:0.71542305;stroke-miterlimit:4;stroke-opacity:1;stroke-dasharray:none"
       id="rect2985-2-7-6-8-2"
       width="27.398542"
       height="15.281659"
       x="289.35364"
       y="182.37476"
       ry="0.27859226" />
    <rect
       style="fill:#b7bec8;fill-opacity:1;stroke:#000000;stroke-width:0.71385592;stroke-miterlimit:4;stroke-opacity:1;stroke-dasharray:none"
       id="rect2985-2-7-5-5-7-9"
       width="25.79364"
       height="15.304025"
       x="315.61227"
       y="182.36269"
       ry="0.27899998" />
    <path
       sodipodi:type="arc"
       style="fill:#000000;fill-opacity:1;stroke:#000000;stroke-width:1;stroke-linejoin:miter;stroke-miterlimit:4;stroke-opacity:1;stroke-dasharray:none;stroke-dashoffset:0"
       id="path3793-4-2-7-2"
       sodipodi:cx="178.57143"
       sodipodi:cy="263.07648"
       sodipodi:rx="5"
       sodipodi:ry="5"
       d="m 183.57143,263.07648 a 5,5 0 1 1 -10,0 5,5 0 1 1 10,0 z"
       transform="matrix(0.52682104,0,0,0.52682104,200.79254,51.926351)" />
    <path
       sodipodi:type="arc"
       style="fill:#000000;fill-opacity:1;stroke:#000000;stroke-width:1;stroke-linejoin:miter;stroke-miterlimit:4;stroke-opacity:1;stroke-dasharray:none;stroke-dashoffset:0"
       id="path3793-4-0-8-1"
       sodipodi:cx="178.57143"
       sodipodi:cy="263.07648"
       sodipodi:rx="5"
       sodipodi:ry="5"
       d="m 183.57143,263.07648 a 5,5 0 1 1 -10,0 5,5 0 1 1 10,0 z"
       transform="matrix(0.52682104,0,0,0.52682104,242.2797,52.114509)" />
    <path
       style="fill:none;stroke:#000000;stroke-width:1.58046317;stroke-linecap:butt;stroke-linejoin:miter;stroke-miterlimit:4;stroke-opacity:1;stroke-dasharray:none;marker-end:url(#marker6921)"
       d="m 119.97229,191.2262 -36.053816,0 0,23.71235"
       id="path7139-7"
       inkscape:connector-curvature="0" />
    <path
       style="fill:none;stroke:#000000;stroke-width:1.58046317;stroke-linecap:butt;stroke-linejoin:miter;stroke-miterlimit:4;stroke-opacity:1;stroke-dasharray:none;marker-end:url(#marker6921)"
       d="m 295.01662,190.52283 -22.03874,0 0,24.03151"
       id="path7139-2"
       inkscape:connector-curvature="0" />
    <path
       style="fill:none;stroke:#000000;stroke-width:1.58046317;stroke-linecap:butt;stroke-linejoin:miter;stroke-miterlimit:4;stroke-opacity:1;stroke-dasharray:none;marker-end:url(#marker6921)"
       d="m 161.38043,191.39955 28.84377,0 0,21.61553"
       id="path7347-6"
       inkscape:connector-curvature="0" />
    <path
       style="fill:none;stroke:#000000;stroke-width:1.58046317;stroke-linecap:butt;stroke-linejoin:miter;stroke-miterlimit:4;stroke-opacity:1;stroke-dasharray:none;marker-end:url(#marker6921)"
       d="m 336.37198,190.67861 40.55818,0 0,23.97847"
       id="path7347-6-0"
       inkscape:connector-curvature="0" />
    <rect
       style="fill:#deaa87;fill-opacity:1;stroke:#000000;stroke-width:0.71542305;stroke-miterlimit:4;stroke-opacity:1;stroke-dasharray:none"
       id="rect2985-21-6-2-0"
       width="51.966419"
       height="15.088948"
       x="58.11042"
       y="219.26651"
       ry="0.27507907" />
    <rect
       style="fill:#b7bec8;fill-opacity:1;stroke:#000000;stroke-width:0.71542305;stroke-miterlimit:4;stroke-opacity:1;stroke-dasharray:none"
       id="rect2985-2-7-6-8-0"
       width="27.398542"
       height="15.281659"
       x="58.014061"
       y="232.34064"
       ry="0.27859226" />
    <rect
       style="fill:#b7bec8;fill-opacity:1;stroke:#000000;stroke-width:0.71385592;stroke-miterlimit:4;stroke-opacity:1;stroke-dasharray:none"
       id="rect2985-2-7-5-5-7-1"
       width="25.79364"
       height="15.304025"
       x="84.272659"
       y="232.3286"
       ry="0.27899998" />
    <path
       sodipodi:type="arc"
       style="fill:#000000;fill-opacity:1;stroke:#000000;stroke-width:1;stroke-linejoin:miter;stroke-miterlimit:4;stroke-opacity:1;stroke-dasharray:none;stroke-dashoffset:0"
       id="path3793-4-0-8-2"
       sodipodi:cx="178.57143"
       sodipodi:cy="263.07648"
       sodipodi:rx="5"
       sodipodi:ry="5"
       d="m 183.57143,263.07648 a 5,5 0 1 1 -10,0 5,5 0 1 1 10,0 z"
       transform="matrix(0.52682104,0,0,0.52682104,10.940091,102.08043)" />
    <path
       style="fill:none;stroke:#000000;stroke-width:1.58046317;stroke-linecap:butt;stroke-linejoin:miter;stroke-miterlimit:4;stroke-opacity:1;stroke-dasharray:none;marker-end:url(#marker6921)"
       d="m 104.51126,240.48605 22.34718,0 0,21.76857"
       id="path7347-6-1"
       inkscape:connector-curvature="0" />
    <rect
       style="fill:#deaa87;fill-opacity:1;stroke:#000000;stroke-width:0.71542305;stroke-miterlimit:4;stroke-opacity:1;stroke-dasharray:none"
       id="rect2985-21-6-2-3"
       width="51.966419"
       height="15.088948"
       x="163.48003"
       y="218.20216"
       ry="0.27507907" />
    <rect
       style="fill:#b7bec8;fill-opacity:1;stroke:#000000;stroke-width:0.71542305;stroke-miterlimit:4;stroke-opacity:1;stroke-dasharray:none"
       id="rect2985-2-7-6-8-5"
       width="27.398542"
       height="15.281659"
       x="163.38365"
       y="231.27634"
       ry="0.27859226" />
    <rect
       style="fill:#b7bec8;fill-opacity:1;stroke:#000000;stroke-width:0.71385592;stroke-miterlimit:4;stroke-opacity:1;stroke-dasharray:none"
       id="rect2985-2-7-5-5-7-0"
       width="25.79364"
       height="15.304025"
       x="189.64226"
       y="231.26425"
       ry="0.27899998" />
    <rect
       style="fill:#deaa87;fill-opacity:1;stroke:#000000;stroke-width:0.71542305;stroke-miterlimit:4;stroke-opacity:1;stroke-dasharray:none"
       id="rect2985-21-6-2-3-0"
       width="51.966419"
       height="15.088948"
       x="260.46906"
       y="218.09726"
       ry="0.27507907" />
    <rect
       style="fill:#b7bec8;fill-opacity:1;stroke:#000000;stroke-width:0.71542305;stroke-miterlimit:4;stroke-opacity:1;stroke-dasharray:none"
       id="rect2985-2-7-6-8-5-2"
       width="27.398542"
       height="15.281659"
       x="260.37268"
       y="231.17143"
       ry="0.27859226" />
    <rect
       style="fill:#b7bec8;fill-opacity:1;stroke:#000000;stroke-width:0.71385592;stroke-miterlimit:4;stroke-opacity:1;stroke-dasharray:none"
       id="rect2985-2-7-5-5-7-0-8"
       width="25.79364"
       height="15.304025"
       x="286.63126"
       y="231.15933"
       ry="0.27899998" />
    <path
       sodipodi:type="arc"
       style="fill:#000000;fill-opacity:1;stroke:#000000;stroke-width:1;stroke-linejoin:miter;stroke-miterlimit:4;stroke-opacity:1;stroke-dasharray:none;stroke-dashoffset:0"
       id="path3793-4-2-7-0-2"
       sodipodi:cx="178.57143"
       sodipodi:cy="263.07648"
       sodipodi:rx="5"
       sodipodi:ry="5"
       d="m 183.57143,263.07648 a 5,5 0 1 1 -10,0 5,5 0 1 1 10,0 z"
       transform="matrix(0.52682104,0,0,0.52682104,171.81155,100.72301)" />
    <path
       style="fill:none;stroke:#000000;stroke-width:1.58046317;stroke-linecap:butt;stroke-linejoin:miter;stroke-miterlimit:4;stroke-opacity:1;stroke-dasharray:none;marker-end:url(#marker6921)"
       d="m 265.72681,239.04073 -20.91945,0 0,24.06097"
       id="path7139-7-7-5"
       inkscape:connector-curvature="0" />
    <rect
       style="fill:#deaa87;fill-opacity:1;stroke:#000000;stroke-width:0.71542305;stroke-miterlimit:4;stroke-opacity:1;stroke-dasharray:none"
       id="rect2985-21-6-2-3-06"
       width="51.966419"
       height="15.088948"
       x="353.06653"
       y="218.36334"
       ry="0.27507907" />
    <rect
       style="fill:#b7bec8;fill-opacity:1;stroke:#000000;stroke-width:0.71542305;stroke-miterlimit:4;stroke-opacity:1;stroke-dasharray:none"
       id="rect2985-2-7-6-8-5-3"
       width="27.398542"
       height="15.281659"
       x="352.97015"
       y="231.43752"
       ry="0.27859226" />
    <rect
       style="fill:#b7bec8;fill-opacity:1;stroke:#000000;stroke-width:0.71385592;stroke-miterlimit:4;stroke-opacity:1;stroke-dasharray:none"
       id="rect2985-2-7-5-5-7-0-6"
       width="25.79364"
       height="15.304025"
       x="379.22879"
       y="231.42543"
       ry="0.27899998" />
    <rect
       style="fill:#deaa87;fill-opacity:1;stroke:#000000;stroke-width:0.71542305;stroke-miterlimit:4;stroke-opacity:1;stroke-dasharray:none"
       id="rect2985-21-6-2-3-5"
       width="51.966419"
       height="15.088948"
       x="102.14043"
       y="265.93478"
       ry="0.27507907" />
    <rect
       style="fill:#b7bec8;fill-opacity:1;stroke:#000000;stroke-width:0.71542305;stroke-miterlimit:4;stroke-opacity:1;stroke-dasharray:none"
       id="rect2985-2-7-6-8-5-7"
       width="27.398542"
       height="15.281659"
       x="102.04407"
       y="279.00894"
       ry="0.27859226" />
    <rect
       style="fill:#b7bec8;fill-opacity:1;stroke:#000000;stroke-width:0.71385592;stroke-miterlimit:4;stroke-opacity:1;stroke-dasharray:none"
       id="rect2985-2-7-5-5-7-0-62"
       width="25.79364"
       height="15.304025"
       x="128.30267"
       y="278.99686"
       ry="0.27899998" />
    <rect
       style="fill:#deaa87;fill-opacity:1;stroke:#000000;stroke-width:0.71542305;stroke-miterlimit:4;stroke-opacity:1;stroke-dasharray:none"
       id="rect2985-21-6-2-3-5-4"
       width="51.966419"
       height="15.088948"
       x="221.80409"
       y="265.55847"
       ry="0.27507907" />
    <rect
       style="fill:#b7bec8;fill-opacity:1;stroke:#000000;stroke-width:0.71542305;stroke-miterlimit:4;stroke-opacity:1;stroke-dasharray:none"
       id="rect2985-2-7-6-8-5-7-2"
       width="27.398542"
       height="15.281659"
       x="221.70772"
       y="278.6326"
       ry="0.27859226" />
    <rect
       style="fill:#b7bec8;fill-opacity:1;stroke:#000000;stroke-width:0.71385592;stroke-miterlimit:4;stroke-opacity:1;stroke-dasharray:none"
       id="rect2985-2-7-5-5-7-0-62-2"
       width="25.79364"
       height="15.304025"
       x="247.96631"
       y="278.62057"
       ry="0.27899998" />
    <path
       sodipodi:type="arc"
       style="fill:#000000;fill-opacity:1;stroke:#000000;stroke-width:1;stroke-linejoin:miter;stroke-miterlimit:4;stroke-opacity:1;stroke-dasharray:none;stroke-dashoffset:0"
       id="path3793-4-2-7-0-5-9"
       sodipodi:cx="178.57143"
       sodipodi:cy="263.07648"
       sodipodi:rx="5"
       sodipodi:ry="5"
       d="m 183.57143,263.07648 a 5,5 0 1 1 -10,0 5,5 0 1 1 10,0 z"
       transform="matrix(0.52682104,0,0,0.52682104,133.14658,148.18421)" />
    <path
       sodipodi:type="arc"
       style="fill:#000000;fill-opacity:1;stroke:#000000;stroke-width:1;stroke-linejoin:miter;stroke-miterlimit:4;stroke-opacity:1;stroke-dasharray:none;stroke-dashoffset:0"
       id="path3793-4-0-8-5-1-3"
       sodipodi:cx="178.57143"
       sodipodi:cy="263.07648"
       sodipodi:rx="5"
       sodipodi:ry="5"
       d="m 183.57143,263.07648 a 5,5 0 1 1 -10,0 5,5 0 1 1 10,0 z"
       transform="matrix(0.52682104,0,0,0.52682104,174.63375,148.37237)" />
    <path
       style="fill:none;stroke:#000000;stroke-width:1.58046317;stroke-linecap:butt;stroke-linejoin:miter;stroke-miterlimit:4;stroke-opacity:1;stroke-dasharray:none;marker-end:url(#marker6921)"
       d="m 227.06184,286.50193 -20.91944,0 0,24.06096"
       id="path7139-7-7-1-3"
       inkscape:connector-curvature="0" />
    <path
       style="fill:none;stroke:#000000;stroke-width:1.58046317;stroke-linecap:butt;stroke-linejoin:miter;stroke-miterlimit:4;stroke-opacity:1;stroke-dasharray:none;marker-end:url(#marker6921)"
       d="m 268.20169,286.77477 22.10696,0 0,21.77464"
       id="path7347-6-2-7-8"
       inkscape:connector-curvature="0" />
    <rect
       style="fill:#deaa87;fill-opacity:1;stroke:#000000;stroke-width:0.71542305;stroke-miterlimit:4;stroke-opacity:1;stroke-dasharray:none"
       id="rect2985-21-6-2-3-5-4-8"
       width="51.966419"
       height="15.088948"
       x="175.51912"
       y="316.35907"
       ry="0.27507907" />
    <rect
       style="fill:#b7bec8;fill-opacity:1;stroke:#000000;stroke-width:0.71542305;stroke-miterlimit:4;stroke-opacity:1;stroke-dasharray:none"
       id="rect2985-2-7-6-8-5-7-2-6"
       width="27.398542"
       height="15.281659"
       x="175.42274"
       y="329.43323"
       ry="0.27859226" />
    <rect
       style="fill:#b7bec8;fill-opacity:1;stroke:#000000;stroke-width:0.71385592;stroke-miterlimit:4;stroke-opacity:1;stroke-dasharray:none"
       id="rect2985-2-7-5-5-7-0-62-2-3"
       width="25.79364"
       height="15.304025"
       x="201.68135"
       y="329.42117"
       ry="0.27899998" />
    <path
       sodipodi:type="arc"
       style="fill:#000000;fill-opacity:1;stroke:#000000;stroke-width:1;stroke-linejoin:miter;stroke-miterlimit:4;stroke-opacity:1;stroke-dasharray:none;stroke-dashoffset:0"
       id="path3793-4-2-7-0-5-9-5"
       sodipodi:cx="178.57143"
       sodipodi:cy="263.07648"
       sodipodi:rx="5"
       sodipodi:ry="5"
       d="m 183.57143,263.07648 a 5,5 0 1 1 -10,0 5,5 0 1 1 10,0 z"
       transform="matrix(0.52682104,0,0,0.52682104,86.861586,198.9848)" />
    <path
       style="fill:none;stroke:#000000;stroke-width:1.58046317;stroke-linecap:butt;stroke-linejoin:miter;stroke-miterlimit:4;stroke-opacity:1;stroke-dasharray:none;marker-end:url(#marker6921)"
       d="m 180.77685,337.30253 -20.91944,0 0,24.06096"
       id="path7139-7-7-1-3-6"
       inkscape:connector-curvature="0" />
    <rect
       style="fill:#deaa87;fill-opacity:1;stroke:#000000;stroke-width:0.71542305;stroke-miterlimit:4;stroke-opacity:1;stroke-dasharray:none"
       id="rect2985-21-6-2-3-5-4-3"
       width="51.966419"
       height="15.088948"
       x="279.75439"
       y="312.21976"
       ry="0.27507907" />
    <rect
       style="fill:#b7bec8;fill-opacity:1;stroke:#000000;stroke-width:0.71542305;stroke-miterlimit:4;stroke-opacity:1;stroke-dasharray:none"
       id="rect2985-2-7-6-8-5-7-2-1"
       width="27.398542"
       height="15.281659"
       x="279.65802"
       y="325.29391"
       ry="0.27859226" />
    <rect
       style="fill:#b7bec8;fill-opacity:1;stroke:#000000;stroke-width:0.71385592;stroke-miterlimit:4;stroke-opacity:1;stroke-dasharray:none"
       id="rect2985-2-7-5-5-7-0-62-2-1"
       width="25.79364"
       height="15.304025"
       x="305.9166"
       y="325.28186"
       ry="0.27899998" />
    <rect
       style="fill:#deaa87;fill-opacity:1;stroke:#000000;stroke-width:0.71542305;stroke-miterlimit:4;stroke-opacity:1;stroke-dasharray:none"
       id="rect2985-21-6-2-3-5-4-30"
       width="51.966419"
       height="15.088948"
       x="134.8786"
       y="364.52554"
       ry="0.27507907" />
    <rect
       style="fill:#b7bec8;fill-opacity:1;stroke:#000000;stroke-width:0.71542305;stroke-miterlimit:4;stroke-opacity:1;stroke-dasharray:none"
       id="rect2985-2-7-6-8-5-7-2-66"
       width="27.398542"
       height="15.281659"
       x="134.78224"
       y="377.5997"
       ry="0.27859226" />
    <rect
       style="fill:#b7bec8;fill-opacity:1;stroke:#000000;stroke-width:0.71385592;stroke-miterlimit:4;stroke-opacity:1;stroke-dasharray:none"
       id="rect2985-2-7-5-5-7-0-62-2-0"
       width="25.79364"
       height="15.304025"
       x="161.04086"
       y="377.58768"
       ry="0.27899998" />
    <path
       style="fill:none;stroke:#000000;stroke-width:1.58046317;stroke-linecap:butt;stroke-linejoin:miter;stroke-miterlimit:4;stroke-opacity:1;stroke-dasharray:none;marker-end:url(#Arrow1Mend-9)"
       d="m 83.891273,126.00892 109.094777,0"
       id="path8425"
       inkscape:connector-curvature="0" />
    <rect
       style="fill:#dbe2e3;fill-opacity:1;stroke:none"
       id="rect4937"
       width="216.42857"
       height="288.42447"
       x="432.14285"
       y="110.00916"
       ry="0.84675002" />
    <rect
       style="fill:#b7bec8;fill-opacity:1;stroke:#000000;stroke-width:0.71568328;stroke-opacity:1"
       id="rect2985-2-8-6"
       width="51.966419"
       height="15.088948"
       x="38.738785"
       y="93.972343"
       ry="0.27507907" />
    <path
       sodipodi:type="arc"
       style="fill:#000000;fill-opacity:1;stroke:#000000;stroke-width:1;stroke-linejoin:miter;stroke-miterlimit:4;stroke-opacity:1;stroke-dasharray:none;stroke-dashoffset:0"
       id="path3793-4-4"
       sodipodi:cx="178.57143"
       sodipodi:cy="263.07648"
       sodipodi:rx="5"
       sodipodi:ry="5"
       d="m 183.57143,263.07648 a 5,5 0 1 1 -10,0 5,5 0 1 1 10,0 z"
       transform="matrix(0.52682104,0,0,0.52682104,-9.3785974,-36.698394)" />
    <text
       xml:space="preserve"
       style="font-size:18.9655571px;font-style:normal;font-weight:normal;line-height:125%;letter-spacing:0px;word-spacing:0px;fill:#000000;fill-opacity:1;stroke:none;font-family:Sans"
       x="40.497787"
       y="104.91341"
       id="text4594-2"
       sodipodi:linespacing="125%"><tspan
         sodipodi:role="line"
         id="tspan4596-3"
         x="40.497787"
         y="104.91341"
         style="font-size:14px">ptr</tspan></text>
    <path
       style="fill:none;stroke:#000000;stroke-width:1.5186094;stroke-linecap:butt;stroke-linejoin:miter;stroke-miterlimit:4;stroke-opacity:1;stroke-dasharray:none;marker-end:url(#Arrow1Mend-9-5)"
       d="m 84.588033,101.86093 305.940737,0 0,111.85642"
       id="path9159"
       inkscape:connector-curvature="0" />
    <text
       xml:space="preserve"
       style="font-size:18px;font-style:normal;font-weight:normal;line-height:125%;letter-spacing:0px;word-spacing:0px;fill:#000000;fill-opacity:1;stroke:none;font-family:Sans"
       x="437.14188"
       y="105.53671"
       id="text4939"
       sodipodi:linespacing="125%"><tspan
         sodipodi:role="line"
         id="tspan4941"
         x="437.14188"
         y="105.53671">Код: Обход дерева</tspan></text>
    <text
       xml:space="preserve"
       style="font-size:18px;font-style:normal;font-weight:normal;line-height:125%;letter-spacing:0px;word-spacing:0px;fill:#000000;fill-opacity:1;stroke:none;font-family:Sans"
       x="438.17648"
       y="134.32439"
       id="text4943"
       sodipodi:linespacing="125%"
       inkscape:export-filename="/home/vova/workspace/latex/CCourseFAKI2015/seminar12/images/list_delete_1.png"
       inkscape:export-xdpi="300"
       inkscape:export-ydpi="300"><tspan
         sodipodi:role="line"
         x="438.17648"
         y="134.32439"
         style="font-size:22px;font-weight:normal;fill:#000000;-inkscape-font-specification:Sans"
         id="tspan10220">ptr = head;</tspan><tspan
         sodipodi:role="line"
         x="438.17648"
         y="161.82439"
         style="font-size:22px;font-weight:bold;fill:#002255;-inkscape-font-specification:Sans Bold"
         id="tspan10252">ptr = ptr-&gt;right;</tspan><tspan
         sodipodi:role="line"
         x="438.17648"
         y="189.32439"
         style="font-size:22px;font-weight:bold;fill:#002255;-inkscape-font-specification:Sans Bold"
         id="tspan10254">ptr = ptr-&gt;right;</tspan></text>
  </g>
</svg>
